<svg width="31" height="31" viewBox="0 0 31 31" fill="none" xmlns="http://www.w3.org/2000/svg">
<path fill-rule="evenodd" clip-rule="evenodd" d="M15.7746 30.0956C24.0936 30.0956 30.8375 23.3798 30.8375 15.0956C30.8375 6.81128 24.0936 0.0955505 15.7746 0.0955505C7.45558 0.0955505 0.71167 6.81128 0.71167 15.0956C0.71167 16.6236 0.941106 18.0982 1.36754 19.4872C1.47636 19.5067 1.6523 19.5513 1.90866 19.6262L1.50834 13.3536C1.50834 13.2386 1.7031 13.1833 1.88153 13.1327C1.97946 13.1049 2.07247 13.0785 2.12567 13.0443C2.27094 12.9529 5.26258 14.0407 5.42239 14.1129L9.248 15.8361C10.2359 15.2152 11.4175 14.9649 12.5797 15.1333L16.0566 10.9119C16.1002 7.54239 18.8604 4.82755 22.2551 4.82273C25.4269 4.85643 28.0564 7.2632 28.3567 10.3968C28.6763 13.7856 26.1775 16.7892 22.7684 17.1117L16.9767 21.2273C16.6232 23.0324 15.3254 24.5101 13.5724 25.0974C10.8848 26.0023 7.96472 24.5679 7.05917 21.8916L5.04467 21.2273C4.89531 21.1801 2.15386 20.0443 1.41129 19.6272C3.34051 25.6965 9.04168 30.0956 15.7746 30.0956ZM25.3546 10.984C25.3546 12.6854 23.967 14.0647 22.2553 14.0647C20.5436 14.0647 19.156 12.6854 19.156 10.984C19.156 9.28258 20.5436 7.90331 22.2553 7.90331C23.967 7.90331 25.3546 9.28258 25.3546 10.984ZM24.3236 10.984C24.3236 12.1192 23.3978 13.0394 22.2557 13.0394C21.1137 13.0394 20.1879 12.1192 20.1879 10.984C20.1879 9.84884 21.1137 8.92862 22.2557 8.92862C23.3978 8.92862 24.3236 9.84884 24.3236 10.984ZM10.5804 22.9987C10.9969 23.2009 11.4569 23.3068 11.9218 23.3068C12.2753 23.3068 12.6191 23.249 12.9581 23.1383C13.7377 22.8687 14.3721 22.3055 14.7304 21.5691C15.4761 20.0335 14.8272 18.1948 13.2873 17.4535C13.0259 17.3283 12.7208 17.4342 12.5949 17.6893C12.469 17.9493 12.5755 18.2525 12.8322 18.3777C12.8661 18.3921 12.9 18.4066 12.9338 18.4258C13.9508 18.9457 14.343 20.1828 13.82 21.1936C13.297 22.2045 12.0477 22.5943 11.0356 22.0745C10.7741 21.9493 10.469 22.0552 10.3431 22.3103C10.2172 22.5703 10.3238 22.8735 10.5804 22.9987Z" fill="#FFB548"/>
</svg>
