<svg width="27" height="23" viewBox="0 0 27 23" fill="none" xmlns="http://www.w3.org/2000/svg">
<g opacity="0.3" filter="url(#filter0_d)">
<path d="M22.3981 2.41449C21.7231 2.70013 21.0072 2.88765 20.2741 2.97084C21.0365 2.53297 21.623 1.84099 21.899 1.01526C21.1731 1.42694 20.3789 1.71699 19.5508 1.87286C18.8519 1.15947 17.8744 0.755389 16.8519 0.757085C14.8105 0.757085 13.1536 2.33909 13.1536 4.29061C13.1536 4.5679 13.1863 4.83816 13.2502 5.09623C10.1764 4.94862 7.45216 3.54236 5.62787 1.404C5.30934 1.92529 5.12764 2.53297 5.12764 3.18076C5.12764 4.40623 5.78024 5.48805 6.77231 6.12188C6.18494 6.10468 5.61046 5.95309 5.09706 5.67983V5.7249C5.09706 7.43659 6.37189 8.86495 8.06278 9.19027C7.5182 9.3312 6.94722 9.35187 6.39305 9.25072C6.86384 10.6549 8.22998 11.6764 9.8475 11.7061C8.5821 12.6524 6.98781 13.2184 5.25483 13.2184C4.96015 13.2181 4.66574 13.2015 4.37305 13.1689C6.00943 14.1713 7.95365 14.7571 10.0418 14.7571C16.8438 14.7571 20.5627 9.37118 20.5627 4.70056C20.5627 4.54779 20.5627 4.39502 20.5513 4.24335C21.2749 3.74295 21.8998 3.12372 22.3969 2.41449H22.3981Z" fill="white"/>
</g>
<defs>
<filter id="filter0_d" x="0.373047" y="0.75708" width="26.025" height="22" filterUnits="userSpaceOnUse" color-interpolation-filters="sRGB">
<feFlood flood-opacity="0" result="BackgroundImageFix"/>
<feColorMatrix in="SourceAlpha" type="matrix" values="0 0 0 0 0 0 0 0 0 0 0 0 0 0 0 0 0 0 127 0"/>
<feOffset dy="4"/>
<feGaussianBlur stdDeviation="2"/>
<feColorMatrix type="matrix" values="0 0 0 0 0 0 0 0 0 0 0 0 0 0 0 0 0 0 0.25 0"/>
<feBlend mode="normal" in2="BackgroundImageFix" result="effect1_dropShadow"/>
<feBlend mode="normal" in="SourceGraphic" in2="effect1_dropShadow" result="shape"/>
</filter>
</defs>
</svg>
